<?xml version="1.0" encoding="utf-8"?>
<!-- Generator: Adobe Illustrator 19.0.0, SVG Export Plug-In . SVG Version: 6.00 Build 0)  -->
<svg version="1.1" xmlns="http://www.w3.org/2000/svg" xmlns:xlink="http://www.w3.org/1999/xlink" x="0px" y="0px"
	 viewBox="0 0 960 560" style="enable-background:new 0 0 960 560;" xml:space="preserve">
<style type="text/css">
	.st0{fill:url(#XMLID_4_);stroke:url(#XMLID_5_);stroke-miterlimit:10;}
	.st1{fill:#6A869A;stroke:#0A2142;stroke-width:5;stroke-miterlimit:10;}
	.st2{fill:#1E68A8;stroke:#0A2142;stroke-width:5;stroke-miterlimit:10;}
	.st3{fill:#BDDAF0;}
	.st4{fill:#6A869A;stroke:#0A2142;stroke-width:2;stroke-miterlimit:10;}
	.st5{fill:#0A2142;}
	.st6{fill:#576E7C;stroke:#0A2142;stroke-width:5;stroke-miterlimit:10;}
	.st7{fill:#A6C1D1;}
	.st8{fill:#D3D3D3;stroke:#0A2142;stroke-width:5;stroke-miterlimit:10;}
	.st9{opacity:0.7;fill:none;stroke:#0E52A5;stroke-width:3;stroke-miterlimit:10;}
	.st10{fill:none;stroke:#0A2142;stroke-width:5;stroke-miterlimit:10;}
	.st11{fill:#0A2142;stroke:#0A2142;stroke-miterlimit:10;}
	.st12{fill:#D3D3D3;stroke:#0A2142;stroke-width:4;stroke-miterlimit:10;}
	.st13{opacity:0.7;}
	.st14{fill:#0E52A5;}
	.st15{fill:#0A2142;stroke:#0A2142;stroke-width:5;stroke-miterlimit:10;}
</style>
<g id="rectangle_new_background">
	<linearGradient id="XMLID_4_" gradientUnits="userSpaceOnUse" x1="480.5" y1="-2.157321e-008" x2="480.5" y2="560">
		<stop  offset="0" style="stop-color:#000000"/>
		<stop  offset="2.506512e-002" style="stop-color:#010709"/>
		<stop  offset="6.672271e-002" style="stop-color:#051923"/>
		<stop  offset="0.1195" style="stop-color:#0B374C"/>
		<stop  offset="0.1379" style="stop-color:#0D435C"/>
		<stop  offset="0.1647" style="stop-color:#0F4D6A"/>
		<stop  offset="0.2156" style="stop-color:#146990"/>
		<stop  offset="0.2849" style="stop-color:#1D94CC"/>
		<stop  offset="0.2965" style="stop-color:#1E9CD7"/>
		<stop  offset="0.54" style="stop-color:#0075BE"/>
		<stop  offset="0.9944" style="stop-color:#000000"/>
	</linearGradient>
	<linearGradient id="XMLID_5_" gradientUnits="userSpaceOnUse" x1="-0.5" y1="280" x2="961.5" y2="280">
		<stop  offset="0" style="stop-color:#0071BC"/>
		<stop  offset="9.507525e-002" style="stop-color:#077AC2"/>
		<stop  offset="0.2527" style="stop-color:#1894D2"/>
		<stop  offset="0.2965" style="stop-color:#1E9CD7"/>
		<stop  offset="0.54" style="stop-color:#0075BE"/>
		<stop  offset="0.9944" style="stop-color:#000000"/>
	</linearGradient>
	<rect id="XMLID_21_" class="st0" width="961" height="560"/>
</g>
<g id="sciunderock">
	<path id="XMLID_7_" class="st1" d="M180.9,293.2c0,0-20.1-19.4-42.1-12.8c0,0-32.4,6.4-35.9,28.9c-0.1,0.7-0.3,1.5-0.5,2.2
		c-0.7,1.9-1.2,6.7,7.7,10.8c-0.4,0,40.1,17.4,63.3,15.6c0.6,0-18.1,0.3-13.1,0.3c19.3,0.3,13.7-0.4,13.7-0.4l53.1,11.1
		c0,0,0,0.1,0,0.1l-39.4,3c0,0-23.7-13.7-37.7-13.7c0,0-37.3-6.3-42.3,8c0,0-8.5,20.5-4,28.2c0.4,0.6,0.7,1.3,0.9,2
		c0.8,3.1,4.6,11.8,22.1,15.9H165c0,0,12-2.3,20.7-14.6c0,0,6.3-5.4,14.3-5.4h85c5.3,0,10.6-0.8,15.7-2.5
		c14.8-4.8,45.8-15.1,48.3-17.7l16.9-14.8c1.8-1.6,0.6-4.6-1.8-4.3c0,0-0.1,0-0.1,0l-83.3,11c-1.5,0.2-3.1,0.3-4.7,0.2l-58-3.8
		l-18.4-13.9c0,0-6.7-5.6-5.4-8.4C195.5,315.4,180.9,293.2,180.9,293.2z"/>
	<path id="XMLID_10_" class="st2" d="M120.9,308c-1.1-1.4-0.7-3.4,0.8-4.4c4.7-3.2,18.4-11.8,24.7-10.2c0,0,22.7,6.1,25.4,10.7
		c0.3,0.4,0.5,0.9,0.9,1.2c2.5,2.4,11.3,11.4,8.1,13.7c0,0-7.1,7.9-10.7,6.4c-0.6-0.3-1.3-0.5-1.9-0.7
		C161.1,323.3,127.1,315.9,120.9,308z"/>
	<path id="XMLID_9_" class="st2" d="M122.5,355.3c0,0-8,13.1-2.5,18.5c0,0,2.4,4.8,9.7,5.8H162c0,0,13.3-4,12-9
		c0,0,3.3-10.9-3.7-12.6C170.3,357.9,132,347.8,122.5,355.3z"/>
	<path id="XMLID_11_" class="st3" d="M113.7,295.7c4.1-3,20.2-14.1,36.4-13.4c0.6,0,2.2,0.1,2.8,0.3c1.9,0.7,6.9,1.6,11.9,3.9
		c5.5,2.5,11.1,6,14.1,8.8c6.5,6.1-25.2-22.1-65.1,0.6C113.7,295.9,113.6,295.8,113.7,295.7z"/>
	<path id="XMLID_12_" class="st3" d="M120.7,311c0,0,6.1,4.1,12.5,6.7c1.8,0.7,3.5,1.5,5.2,1.8c0,0,19.6,6,23.5,6.5l6.8,1.4
		c0,0-17.5-2.4-20.9-3c-3.4-0.6-16.3-4.8-20.5-7.5C123.1,314.2,120.7,311,120.7,311z"/>
	<path id="XMLID_13_" class="st3" d="M133.2,317"/>
	<path id="XMLID_14_" class="st3" d="M218.1,369H288c0,0,11.5-1.6,29-9.6c0,0-23.9,6.1-31.6,5.5L218.1,369z"/>
	<line id="XMLID_15_" class="st4" x1="236.8" y1="341.7" x2="246" y2="349.8"/>
	<line id="XMLID_16_" class="st4" x1="246" y1="343.3" x2="239.2" y2="349.8"/>
	<line id="XMLID_19_" class="st4" x1="239.2" y1="356.3" x2="248.2" y2="365.5"/>
	<line id="XMLID_18_" class="st4" x1="246" y1="356.3" x2="236.8" y2="365.5"/>
	<g id="XMLID_17_">
		<g id="XMLID_114_">
			<path id="XMLID_118_" class="st5" d="M253.9,346c-0.3,3.7,0,7,2.2,10.1c1.9,2.7,4,5.3,7,6.8c3.4,1.8,6.5-3.4,3-5.2
				c-2.1-1.1-3.5-2.8-4.9-4.6c-1.7-2.3-1.6-4.4-1.4-7.1C260.3,342.2,254.3,342.2,253.9,346L253.9,346z"/>
		</g>
	</g>
	<path id="XMLID_20_" class="st3" d="M114.6,342.3c0,0,19.4-4.9,35.5-1.2c0,0,3.8-0.3,8.5,1.1c8.8,2.8,22.6,6.7,29.5,12.2l1.1,1.7
		c0,0-30.2-13.1-63.6-14.3C122.8,341.8,117.6,342.2,114.6,342.3z"/>
	<path id="XMLID_22_" class="st3" d="M157,340.4"/>
	<path id="XMLID_24_" class="st3" d="M117.5,342.2c0,0-9.1,2.2-9.4,9.7l-1.3,4.3c0,0,3.7-11.4,17-13.7S117.5,342.2,117.5,342.2z"/>
	<path id="XMLID_23_" class="st3" d="M123.4,340.2"/>
	<path id="XMLID_25_" class="st3" d="M125.4,341.2"/>
	<path id="XMLID_26_" class="st3" d="M118.1,342.3c0,0,12.9-1.5,15.4-1.3l-9-1.2c-0.6-0.1-1.2,0-1.8,0.3L118.1,342.3z"/>
	<path id="XMLID_27_" class="st3" d="M174.2,350l10.7,7.3c1.4,0.9,3.1,1.3,4.7,1l38-6.7l-40.6,2.8C187.1,354.3,175,349.5,174.2,350z
		"/>
	<path id="XMLID_28_" class="st3" d="M121.8,379.5c0,0,4,1.4,6.7,2.3L162,382c0,0,4.7-1.1,5.7-2c0,0,4.6-1.6,6.5-3.8
		c0,0-8.7,7.4-11.6,7.5c0,0-21.6,1.2-34.2,0C128.5,383.8,126.3,383,121.8,379.5z"/>
	<polygon id="XMLID_29_" class="st3" points="259.8,345.8 278.4,347 320.2,341.5 278.8,349.5 	"/>
	<path id="XMLID_32_" class="st3" d="M110,346.8c0,0,1.1-2.8,4.6-4.6l8.8-2.5c0,0,15.3-0.8,17.1,0
		C142.3,340.6,118.4,340.5,110,346.8z"/>
	<path id="XMLID_53_" class="st1" d="M375.8,206.4c0,0,9.4-5.8,15.5-6.8c0,0,8.1-1.6,17.3,1.1c0,0,11.8,3.1,13.1,4.4
		c0,0,7.2,5.4,9.1,9.3C430.7,214.5,405.1,193.6,375.8,206.4z"/>
</g>
<g id="rockonsci">
	<path id="XMLID_209_" class="st6" d="M238.3,197c0,0-43,1.8-41.5,26.3l-3.3,19.3L182.5,264c-1.4,2.7-2,5.7-1.7,8.8
		c0.8,9.7,3.4,31.6,12.2,42.7l3.4,7.1c0.8,1.6,1.9,3,3.3,4l13.7,10.1c3.3,2.4,7.3,3.8,11.5,3.8H271c0,0,30.5-7,37.5-19.5l10.8-10.8
		c1.2-1.2,2.1-2.6,2.7-4.1c3-7.3,11-30,6.5-49.9C328.5,256.3,295,186.5,238.3,197z"/>
	<polygon id="XMLID_208_" class="st7" points="196,243.5 220.8,249.8 183.8,266.7 	"/>
	<path id="XMLID_207_" class="st7" d="M215.1,204.4c0,0,2.8-1.6,8.3-2.9c13.1-3.1,38.1-6.5,55.8,4.6l4.9,2.6l8,5.7
		c0,0-8.4-2.5-16.5-4.1c-5.9-1.2-13.4-3-20.9-4.2c-8.5-1.3-17.5-2.7-24.8-3C223,203,218,202.9,215.1,204.4z"/>
</g>
<g id="scissorwins">
	<path id="XMLID_30_" class="st8" d="M484.7,241c0,0,21.7-55,16-67.3L610,198.5c0,0,14,4.5,21.7,10.5c0,0-56,123.7-56,137
		c0,0-4.7,25.1-12,30.2l-5.5,4c0,0-107.2-27.2-112.5-26.1c0,0,12.7-14.2,14.7-22.8c0,0,4.7-42.8,11.3-49.1l93.7,11.6
		c0,0,6.5-9.2,2.2-14.2C567.5,279.7,484.6,255,484.7,241z"/>
	<path id="XMLID_33_" class="st1" d="M567.1,279.5l-119.9-38.2c-0.2-0.1-0.4-0.3-0.5-0.5c-1.4-3.8-13.4-35.6-27.1-39.1
		c-1.1-0.3-2.2-0.6-3.3-1c-5.1-2-20-7.1-30-1.8c-1.2,0.6-2.4,1.1-3.6,1.5c-4.8,1.4-17.2,6.6-23,24.8c-0.1,0.2-0.1,0.4-0.2,0.6
		c-0.3,1.7-1.2,8.4,4.8,11.6c1,0.5,2,1.1,2.9,1.7c3.5,2.6,13.7,9.3,28.1,11.1c0,0,0.1,0,0.1,0l65,16.7c0.9,0.2,0.8,1.6-0.1,1.6
		l-30.1,2.1c-0.2,0-0.4,0-0.6-0.2c-2.1-1.7-16.2-13.3-21.8-13.5c-1.3-0.1-2.6-0.2-3.9-0.6c-5.7-1.9-20.1-5.8-30.4-1.1
		c0,0-0.1,0-0.1,0c-1,0.2-15.3,3-19.4,22.7c0,0,0,0.1,0,0.1c0,0.9-0.6,14.1,10.9,19.5c0.2,0.1,0.4,0.2,0.6,0.4
		c1.5,1.1,9.5,6.5,28.7,6.3l13.6,0c0.1,0,0.2,0,0.3,0c1.3-0.4,12.3-4.4,16-13.3c0.1-0.3,0.3-0.4,0.6-0.5c3.9-0.6,33.7-5.1,42.6-2.1
		c0.5,0.2,1-0.1,1.1-0.6c0.2-1,0.9-2.7,3.2-5.2c0.2-0.2,0.5-0.3,0.7-0.3l92.6,11.5c0.4,0,0.7-0.2,0.9-0.5c0.8-2,3.4-8.6,2-13.2
		C567.6,279.8,567.3,279.6,567.1,279.5z"/>
	<path id="XMLID_34_" class="st2" d="M382.8,215.7c0,0-10.8,8.3-1.8,11.7l36.5,12.5c0,0,7.5,2.5,8.5-10c0,0-5.5-12.7-17.3-15
		C408.7,214.8,391.5,209,382.8,215.7z"/>
	<path id="XMLID_35_" class="st2" d="M371.7,275.3c0,0-1.5,9.7,2.3,11.7c0,0,4.8,3.3,7.5,3.2l21.8,0c0,0,7.3-1.8,7.8-8.8
		c0,0,0.2-6.3-4-7.5c0,0-20-10.2-29.7-5.6C377.4,268.2,373.5,271.5,371.7,275.3z"/>
	<line id="XMLID_40_" class="st9" x1="502.3" y1="193.5" x2="618" y2="233"/>
	<line id="XMLID_42_" class="st9" x1="496.2" y1="214.7" x2="608.9" y2="253.8"/>
	<line id="XMLID_43_" class="st9" x1="488.9" y1="236.4" x2="601.1" y2="274.4"/>
	<line id="XMLID_45_" class="st9" x1="470.2" y1="290.8" x2="580.3" y2="322.5"/>
	<line id="XMLID_46_" class="st9" x1="464.8" y1="315" x2="573.5" y2="347.3"/>
	<line id="XMLID_47_" class="st9" x1="458.3" y1="341.3" x2="564.7" y2="370.5"/>
	<line id="XMLID_41_" class="st9" x1="570.2" y1="291.2" x2="590.5" y2="298.2"/>
	<line id="XMLID_44_" class="st10" x1="523" y1="196.6" x2="530" y2="221"/>
	<line id="XMLID_48_" class="st10" x1="545" y1="205.3" x2="515" y2="214.7"/>
	<line id="XMLID_49_" class="st10" x1="580.3" y1="220.1" x2="589" y2="242"/>
	<line id="XMLID_50_" class="st10" x1="573.5" y1="236.4" x2="599.5" y2="226.7"/>
	<path id="XMLID_52_" class="st11" d="M519.8,243.4c12.3-2,32.4-1.7,46.9,16c2.1,2.6-0.4,6.3-3.6,5.3l-43.8-14.8
		C516.1,248.7,516.4,244,519.8,243.4z"/>
	<path id="XMLID_54_" class="st3" d="M373.5,208.1c0,0,12.1-8.9,18.8-8.6c0,0,10-2.1,23.1,3.5c0,0,10.8,2.5,15,11.3
		c0,0-0.2-1.4,5.5,8.9c0,0-15-17.1-29.2-17.5c-1.3,0-2.7-0.2-4-0.5C397.7,204,384.1,201.7,373.5,208.1z"/>
	<path id="XMLID_55_" class="st3" d="M357.4,274c0,0,5.4-15.1,17-16.8c0,0,13.5-4.3,28.8,1c0,0,16,3.9,22.9,12.9l2.8,2.1l32.1-2.1
		l-34.1,4c0,0-11.8-11.9-23.8-13.8s-19.1-4-28.8-0.8C374.3,260.6,360.3,267.6,357.4,274z"/>
	<path id="XMLID_56_" class="st3" d="M366.7,294.9c0,0,34.1,13.9,55.3-7.3c0,0-3.1,8.5-14.6,12.1
		C407.4,299.8,371.7,301.9,366.7,294.9z"/>
	<path id="XMLID_51_" class="st3" d="M385.5,245.4l76.9,19.6C462.4,265,397.9,242.5,385.5,245.4z"/>
	<path id="XMLID_58_" class="st3" d="M429,216.5c0,0,7.1,12.9,11.2,21.5c2.3,4.7,6.4,8.2,11.4,9.6l58.5,16.6
		c0,0-65.4-19.9-64.5-21.6l-9.7-19.4C435.9,223.2,431.6,216.7,429,216.5z"/>
	<path id="XMLID_57_" class="st3" d="M470.2,280.1c0,0,1.5-2.3,4.7-3.2l87.8,13.9L470.2,280.1z"/>
</g>
<g id="rockloses">
	<path id="XMLID_181_" class="st12" d="M768.2,216.1c0.3,7.8,0.1,21.2-4.5,25.8c-0.2,0.2-0.3,0.3-0.5,0.4
		c-2.3,1.3-17.3,9.3-24.5,11.3c-0.8,0.2-1.5,0.8-1.7,1.6c-1,3-3.4,10.7-2.8,15.1c0.1,0.8-0.1,1.6-0.7,2.1c-2.1,1.9-7.4,6.3-14.9,9.1
		c-0.5,0.2-1,0.6-1.3,1.1c-0.9,1.5-2.3,5,0.5,8.4l25.9,32.6c0.3,0.4,0.5,0.9,0.5,1.4c0.1,1.7-0.1,5.4-3.4,6.3l-15.9,2.8
		c-0.3,0-0.5,0.1-0.8,0.3c-1.3,0.8-5.1,3.5-0.6,7.1c0,0,13.5,11.4,25.5,14.5c0.1,0,0.2,0,0.3,0.1c1.3,0.2,10.3,1.6,12.5,8.1
		c0,0,4.8,10.6,10.8,14c0.7,0.4,1.6,0.3,2.4-0.1c0,0,0,0,0,0c1.6-0.9,3.6,0.3,3.6,2.2v4.5c0,1.3,1.1,2.4,2.4,2.4
		c2.7,0.1,6.9,0.5,8.2,2c0,0,1.6,1,1.7,2.6c0,1.3-1.2,2.4-2.5,2.3c-8.3-0.2-49.9-1.3-49.9-4.3c0,0-5.5-4.7-7.8-4.2
		c-0.4,0.1-0.7,0.1-1.1,0c-3.9-0.7-23.4-5.1-32.8-19c-0.1-0.1-0.2-0.3-0.3-0.4c-1.9-1.8-17-15.6-29.1-18.8c-0.3-0.1-0.5-0.2-0.7-0.3
		c-1.1-0.7-3.6-3.2,0.4-8.6c0-0.1,0.1-0.1,0.1-0.2c0.5-0.8,3.5-6.1,5.1-9.8c0.1-0.3,0.2-0.6,0.2-0.9l1-40c0-0.1,0-0.3,0-0.4
		c-0.1-1-0.9-5.5-3-8.5c-2.3-3.2,3-11.2,13.6-11.3c0.7,0,1.3-0.3,1.8-0.9c2.9-3.4,13.7-16,20.3-19.5c0,0,44.2-20.4,58.2-32.7
		C765.7,212.9,768.1,214,768.2,216.1z"/>
	<g id="XMLID_173_" class="st13">
		<g id="XMLID_108_">
			<path id="XMLID_112_" class="st14" d="M709.8,250.2c8.2,0.3,15.1-0.3,22.8-3.3c8.7-3.5,17.3-7.1,26.9-5.3
				c1.9,0.3,2.7-2.5,0.8-2.9c-8.2-1.5-15.7,0.3-23.4,3.3c-3.9,1.5-7.7,3.4-11.8,4.4c-5,1.3-10.1,1.1-15.3,0.8
				C707.9,247.1,707.9,250.1,709.8,250.2L709.8,250.2z"/>
		</g>
	</g>
	<g id="XMLID_165_" class="st13">
		<g id="XMLID_101_">
			<path id="XMLID_106_" class="st14" d="M674.1,276.7c9.1-2.3,18.6,1.3,27.4-2.4c4.2-1.8,7.9-4.5,12.3-5.8
				c5.4-1.6,10.9-1.5,16.4-0.1c1.9,0.5,2.7-2.4,0.8-2.9c-9.3-2.4-17.9-0.8-26.2,3.7c-5.4,2.9-10.3,4.1-16.4,3.8
				c-5.1-0.2-10.1-0.5-15.1,0.8C671.5,274.3,672.3,277.2,674.1,276.7L674.1,276.7z"/>
		</g>
	</g>
	<g id="XMLID_157_" class="st13">
		<g id="XMLID_95_">
			<path id="XMLID_99_" class="st14" d="M675.6,298.6c5.1,3.1,10.1-0.1,13.9-3.8c3.2-3.1,5.4-5.6,10.3-5.6c4.5,0,8.9,0.9,13.2,2.3
				c1.8,0.6,2.6-2.3,0.8-2.9c-5.4-1.8-12.9-3.6-18.6-2c-5.9,1.7-11,13.7-18.1,9.4C675.5,295,674,297.6,675.6,298.6L675.6,298.6z"/>
		</g>
	</g>
	<g id="XMLID_149_" class="st13">
		<g id="XMLID_88_">
			<path id="XMLID_92_" class="st14" d="M675.2,318.5c5.9,1.6,11.6,1.4,17.5-0.3c3.4-1,6.6-2.3,10.2-2.3c4.2,0,7.7,1.8,11.4,3.5
				c4,1.8,7.6,2.5,11.8,1.2c3.7-1.1,5.4-0.4,8.3,2c1.8,1.5,3.5,3.3,5.2,4.9c1.4,1.3,3.5-0.8,2.1-2.1c-3-2.9-6-6.5-10-8.1
				c-1.4-0.6-2.7-0.9-4.2-0.6c-1.3,0.3-2.4,0.9-3.6,1.2c-2.8,0.6-4.9,0.1-7.5-0.9c-5.2-2.1-9.9-4.6-15.7-4c-3.7,0.4-7,1.9-10.5,2.8
				c-4.9,1.2-9.3,1.1-14.2-0.2C674.2,315.1,673.4,318,675.2,318.5L675.2,318.5z"/>
		</g>
	</g>
	<g id="XMLID_141_" class="st13">
		<g id="XMLID_81_">
			<path id="XMLID_85_" class="st14" d="M676.4,349.3c6.3-1.5,12-4.1,17.6-7.5c3.1-1.9,6.1-4,9.8-4.5c5-0.7,9.5,1.5,13.9,3.6
				c1.7,0.8,3.2-1.7,1.5-2.6c-6.5-3.2-13-5.8-20.1-2.8c-3.6,1.5-6.8,3.9-10.2,5.7c-4.2,2.3-8.6,4-13.3,5.1
				C673.7,346.9,674.5,349.8,676.4,349.3L676.4,349.3z"/>
		</g>
	</g>
	<g id="XMLID_133_" class="st13">
		<g id="XMLID_73_">
			<path id="XMLID_78_" class="st14" d="M695.2,362.8c3.2,0.9,4.8-1,7.4-2.6c4.9-3.1,11.1-3.6,16.4-1.4c2.6,1,5.1,2.8,8,1.7
				c3-1.2,4.1-5.2,7.4-5.9c1.9-0.4,1.1-3.3-0.8-2.9c-2.4,0.5-3.8,2.1-5.4,3.8c-3.4,3.6-8.4-0.1-12.5-0.8c-3.2-0.5-6.5-0.3-9.6,0.6
				c-1.5,0.5-3.1,1.1-4.4,1.9c-1.7,0.9-3.5,3.3-5.7,2.7C694.1,359.4,693.3,362.3,695.2,362.8L695.2,362.8z"/>
		</g>
	</g>
	<g id="XMLID_125_" class="st13">
		<g id="XMLID_66_">
			<path id="XMLID_71_" class="st14" d="M714.6,378.2c7-4.4,14-2.8,21.8-3.9c7.7-1,15.5-7.1,23.3-4.7c1.8,0.6,2.6-2.3,0.8-2.9
				c-8.2-2.6-15.1,3-23,4.4c-8.7,1.6-16.6-0.5-24.4,4.5C711.4,376.7,712.9,379.3,714.6,378.2L714.6,378.2z"/>
		</g>
	</g>
	<g id="XMLID_102_" class="st13">
		<g id="XMLID_60_">
			<path id="XMLID_64_" class="st14" d="M741.3,388.8c3.5-2.4,7.4-3.8,11.5-4.8c4.2-1.1,7.3-1.3,11.5,0.1c4,1.3,10.2,2.7,12.1-2.1
				c0.7-1.8-2.2-2.6-2.9-0.8c-1.3,3.2-9.7-0.8-11.8-1.3c-2-0.5-3.8-0.3-5.8,0.1c-5.7,1.2-11.3,2.8-16.1,6.1
				C738.2,387.3,739.7,389.9,741.3,388.8L741.3,388.8z"/>
		</g>
	</g>
	<path id="XMLID_94_" class="st6" d="M766.5,236.4c0,0,24.1-2.1,30.5,5.6c0,0,12.4,15.4,14.9,25.4c0.7,2.7,1.7,5.2,3.2,7.5
		c2.4,3.6,6.3,8.7,10.8,12.9c2.9,2.7,4.9,6.4,5.5,10.3c1.9,11,4.3,32.9-3.1,51.5c0,0-9.3,17.3-16.7,20.8c0,0-18.7,12.3-33.2,9.6l0,0
		c-1-1.4-2.7-2.2-4.4-1.9l-0.8,0.1c0,0-11.5-10-15.6-19.2c0,0-25.7-8.9-26.1-11.6l-10.1-8.3c0,0-1.9-3,2.4-4.9l18.5-4.1
		c0,0,2.1-4.4,1.1-6.7l-27.4-35.8c0,0-1.3-2,1-5.2l16.2-10.2l3.5-17.2l26.7-13.2L766.5,236.4z"/>
	<line id="XMLID_87_" class="st10" x1="750.3" y1="270.5" x2="770" y2="282"/>
	<line id="XMLID_1_" class="st10" x1="767" y1="265" x2="754.5" y2="285.3"/>
	<line id="XMLID_2_" class="st10" x1="782.8" y1="265.7" x2="800.8" y2="278.3"/>
	<line id="XMLID_68_" class="st10" x1="796.5" y1="262" x2="787" y2="278.3"/>
	<path id="XMLID_74_" class="st15" d="M809.7,307.1l-41,21.1c-0.6,0.3-1.3-0.3-1-0.9c1.7-4.4,6.6-15.6,14.8-20.1
		c0.1,0,0.3-0.1,0.4-0.2l10.8-1.9c0.5-0.1,0.9-0.1,1.4-0.1l14.3,0.6C810.1,305.6,810.4,306.7,809.7,307.1z"/>
	<path id="XMLID_80_" class="st7" d="M768.1,239.8l-3.1,4.9c-0.2,0.4,0.7,0.5,1.1,0.5c5.3,0.2,31.2,1.5,34.6,6.9
		c0,0-4.3-11.6-11.3-11.5C789.4,240.6,768.7,238.2,768.1,239.8z"/>
</g>
</svg>
