<?xml version="1.0" encoding="utf-8"?>
<!-- Generator: Adobe Illustrator 19.0.0, SVG Export Plug-In . SVG Version: 6.00 Build 0)  -->
<svg version="1.1" id="Layer_1" xmlns="http://www.w3.org/2000/svg" xmlns:xlink="http://www.w3.org/1999/xlink" x="0px" y="0px"
	 viewBox="0 0 960 560" style="enable-background:new 0 0 960 560;" xml:space="preserve">
<style type="text/css">
	.st0{fill:#FFFFFF;}
</style>
<g id="XMLID_1_">
	<g id="XMLID_44_">
		<path id="XMLID_74_" d="M1.5,1.5c320,0,640.1,0,960.3,0c0,186.5,0,373,0,559.8c-320,0-640.1,0-960.3,0
			C1.5,374.8,1.5,188.1,1.5,1.5z M576.6,311.5c-4.6,0-8.7,0.4-12.7-0.1c-25.2-3-50.3-6.3-75.5-9.4c-9.8-1.2-10.7-0.5-14.1,8.9
			c-6.3,17.6-5.4,37.1-14.8,53.9c-2.7,4.8,1.2,7,5.5,7.9c32,6.3,63.9,12.5,95.9,18.8c3.7,0.7,5.6-0.2,7.3-3.8
			c5-10.4,9.3-20.8,12.2-32.1c7.3-27.8,20.1-53.6,32.6-79.4c7.8-16.3,15.5-32.6,23.8-49.9c-41.1-19.3-84.8-25.2-128.4-34.8
			c-1,22-7.7,41-15.4,59.8c-2.4,5.8-0.8,9.4,4.7,12.3c19.4,9.9,39.3,18,60.9,22.3C574.8,289,577.8,294.2,576.6,311.5z M738.1,354.3
			c5.2,8.1,12.7,12,21.1,13.5c8.5,1.5,14.5,6,19.3,12.6c6.9,9.7,18.3,13.3,29.7,9.4c3.2-1.1,6.3-2.5,9.4-3.9c12.8-5.8,21-15,22-29.6
			c0.4-5.3,1.5-10.5,2.1-15.8c1.8-16.1,1.1-31.4-12.4-43.1c-2.1-1.8-3.2-4.7-4.7-7.2c-3.8-6.7-6.9-13.9-11.4-20
			c-6.8-9.1-14.8-17.2-27.8-15.5c-2,0.3-4.2,0.9-5.7,2.1c-3,2.4-5.1,5.9-8.3,7.8c-7.2,4.2-14.9,7.6-22.4,11.3
			c-0.9-7.8-0.6-8.4,7-10.1c19.9-4.6,28.5-18.7,26.4-37.4c-4.3,3.2-7.9,6.1-11.8,8.6c-6.1,4-12.2,8.4-18.7,11.6
			c-15.8,7.7-32.8,13.4-45,26.7c-5.2,5.6-10,10.7-18,12.2c-6.1,1.1-6.5,5-4.3,10.4c1.7,4.2,2.9,9,2.6,13.4
			c-0.5,8.6-1.9,17.2-3.5,25.6c-1.1,5.6-2.6,11.3-4.9,16.4c-2.8,6-1.3,9.1,4.4,12c7,3.6,13.5,8,20,12.4c8.8,6,16.7,13.4,26,18.2
			c22.7,11.8,48.1,11.3,72.8,13.3c0.6,0,1.2-0.5,3.8-1.8c-5.1-1.2-8.3-1.9-11.9-2.7c-0.2-2.1-0.4-4.5-0.4-4.8
			c-4.6-4.2-8.1-7.2-11.5-10.4c-2.7-2.6-4.9-6.1-8-8c-10.9-6.5-22.4-12.2-33.1-19c-3.6-2.3-5.5-7.1-8.2-10.7
			c3.9-1.8,7.7-3.7,11.6-5.4c0.4-0.2,1-0.1,1.4-0.2c8.7-1.4,10.7-4.9,5.3-12.1c-6.5-8.6-13.6-16.8-21.1-24.5c-5.9-6-5.3-12.1,2-16.1
			c6.1-3.3,11.7-7.5,16.9-10.9c0.8,7.6,0.8,7.6-6.4,11.4c-8.6,4.5-10.1,11.1-4.1,18.7c3.6,4.5,7.5,8.9,11.1,13.4
			c2.9,3.6,5.9,7.2,8.5,11c2.9,4.5,2.3,8.2-3.2,10.3C749.4,349.6,744.1,351.8,738.1,354.3z M242.3,353.4
			c27.3,2.3,50.7-6.5,66.2-24.9c12-14.2,14.4-29.6,12.4-46.6c-3.9-32.5-35.2-66.1-73.2-66.7c-17.1-0.3-35.4-3.1-45.8,16
			c-3.1,5.7-5.9,11.7-8.5,17.7c-1.9,4.3-2.2,9.7-4.9,13.3c-4.9,6.5-7.5,13.6-6.9,21.3c0.5,7,2.5,14,4.2,20.9
			c2.4,9.6,4.6,19.3,7.8,28.6c1.3,3.8,4.5,7.3,7.6,9.9C213.8,352.9,228.4,355,242.3,353.4z M233.3,380.6c0,0.5,0.1,1.1,0.1,1.6
			c0.4,0.2,0.7,0.6,1.1,0.7c37.1,3.3,72.5-2.8,106.4-18.4c6.3-2.9,8.8-8,9.9-14.1c0.3-1.8-1-4.2-2.3-5.6c-0.4-0.5-3.5,0.6-4.7,1.7
			c-6.4,5.8-14,7.6-22.5,8c-15.4,0.8-30.8,2.6-46.1,4.2c-9.1,0.9-12.8,6.5-10.9,15.6c0.3,1.3,0.4,2.6,0.8,5.8
			c-8.9-4.8-8.5-11.6-7.8-18.9c-5.2,1.4-12.3-4.7-13.5,4.8c-3.1-0.9-6.2-1.9-9.4-2.8c0.4-1,0.9-2,1.7-3.6
			c-13.9,1.6-25.5-2.9-36.9-8.6c-13-6.5-19.5-17.8-22.5-31.1c-1.5-6.5-3.7-11.3-9.9-13.8c-5.6-2.3-11-4.9-16.8-6.4
			c-18.6-4.8-35.1-0.2-48,13.9c-10.1,11-6.7,22.2,7.5,26.5c9,2.7,18.2,4.8,27.4,6.6c27,5.4,54,10.5,81,15.8c2.4,0.5,4.6,1.7,6.8,2.6
			c-0.1,0.8-0.2,1.7-0.3,2.5c-11.4,1-22.8,2.5-34.2,2.9c-5.1,0.2-10.9-0.2-15.2-2.6c-12.7-7.1-26.1-11.5-40.4-12.5
			c-8-0.6-16.4,0.7-24.2,2.6c-9.4,2.3-14.6,11-14.6,21.8c0,8.1,4.5,15.5,12.9,17c13.4,2.5,27.1,4,40.7,4.7
			c8.3,0.4,15.6-3.5,22.2-9.2c4.1-3.6,9.6-6.9,14.9-7.6c12.4-1.5,25-1.3,37.5-2c2.2-0.1,5.4-0.7,6.1-2.1c1.1-1.9,0.3-4.9,0.3-6.8
			c3.1-1,6.1-1.9,8.4-2.7c0,3.2,0,6.2,0,9.5C237.4,380.6,235.4,380.6,233.3,380.6z M469.8,283.4c-0.1,1-0.3,2-0.4,3
			c-17.7,1.3-35.3,6.8-52.3-5.8c-11.5-8.5-25.3-11.5-39.9-9.3c-11.8,1.8-19.6,10.2-20.5,22.7c-0.8,10.8,3.7,16.6,16.3,20.5
			c3.9,1.2,7.9,2.4,12,2.8c10.8,0.9,22.3,3.2,31.2-5.1c8.6-8,18.4-11,29.7-10.8c6.8,0.1,13.5,0.4,20.3,0.4c1.9,0,3.8-1.2,5.7-1.8
			c2.3-0.8,4.6-2.4,6.8-2.3c5.3,0.2,10.5,1.4,15.8,2c22.8,2.6,45.6,5.1,68.4,7.8c4.2,0.5,7.8-0.7,8.1-4.7c0.1-2.1-3-5.4-5.4-6.6
			c-4.8-2.2-10-3.4-15.1-4.9c-29.8-8.9-59.6-17.8-89.4-26.5c-9-2.6-15.9-6.8-18.3-16.4c-0.6-2.3-2-4.4-3-6.6
			c-9.6-21.9-38.8-35.9-63.2-20.6c-8.2,5.1-14.1,12.3-14.4,22.2c-0.2,7.8,6.6,11.2,12.8,13.1c15.9,4.9,32.1,8.8,48.1,13.3
			C438.6,274.1,454.2,278.8,469.8,283.4z"/>
		<path id="XMLID_69_" class="st0" d="M576.6,311.5c1.2-17.3-1.8-22.5-18.1-25.7c-21.5-4.3-41.5-12.4-60.9-22.3
			c-5.6-2.8-7.1-6.4-4.7-12.3c7.7-18.7,14.4-37.8,15.4-59.8c43.6,9.6,87.3,15.6,128.4,34.8c-8.3,17.4-15.9,33.7-23.8,49.9
			c-12.4,25.8-25.3,51.6-32.6,79.4c-3,11.3-7.2,21.7-12.2,32.1c-1.7,3.5-3.6,4.5-7.3,3.8c-32-6.3-63.9-12.5-95.9-18.8
			c-4.3-0.8-8.1-3.1-5.5-7.9c9.4-16.8,8.5-36.3,14.8-53.9c3.4-9.4,4.3-10.1,14.1-8.9c25.2,3.1,50.3,6.4,75.5,9.4
			C567.9,311.9,572,311.5,576.6,311.5z M561.5,266.2c-1.1-5.5-2.4-10.6-8.5-13c-9.2-3.6-18.2-2.2-27.1,1
			C537.6,258.2,549.3,262.1,561.5,266.2z M589.9,245.9c-1.2-1.1-2.8-2.6-4.3-4.1c3.4,5.5-0.4,8.5-3.4,12.2c2.1-0.6,4.2-1.3,6.5-1.9
			c1.3,1.8,2.5,3.5,3.7,5.1c0.4-0.3,0.9-0.6,1.3-0.9c-0.4-2.2-0.8-4.4-1.3-7.1c2.5-1.3,5.1-2.7,7.6-4c-0.2-0.5-0.4-1-0.5-1.5
			C596.4,244.3,593.3,245.1,589.9,245.9z M529.6,222.4c-6-1.5-10.1-2.4-14.5-3.5c0.1,1.1,0.4,2.8,0.6,4.7c-2.3,1.2-4.5,2.3-8.6,4.4
			c4.7-0.3,7.3-0.5,9.5-0.7c1.4,2.1,2.6,3.9,3.8,5.7c0.4-0.2,0.8-0.3,1.2-0.5c-0.2-2.5-0.4-5-0.6-7.5
			C523.7,224.2,525.9,223.6,529.6,222.4z"/>
		<path id="XMLID_64_" class="st0" d="M738.1,354.3c6-2.4,11.3-4.7,16.7-6.7c5.5-2.1,6.1-5.9,3.2-10.3c-2.5-3.9-5.5-7.4-8.5-11
			c-3.6-4.5-7.5-8.8-11.1-13.4c-6-7.6-4.5-14.2,4.1-18.7c7.3-3.8,7.3-3.8,6.4-11.4c-5.3,3.4-10.9,7.6-16.9,10.9
			c-7.4,4-7.9,10-2,16.1c7.5,7.7,14.7,15.9,21.1,24.5c5.4,7.2,3.4,10.7-5.3,12.1c-0.5,0.1-1,0-1.4,0.2c-3.9,1.8-7.7,3.6-11.6,5.4
			c2.7,3.6,4.7,8.4,8.2,10.7c10.7,6.8,22.2,12.4,33.1,19c3.1,1.9,5.3,5.4,8,8c3.3,3.2,6.8,6.2,11.5,10.4c0,0.3,0.2,2.7,0.4,4.8
			c3.6,0.8,6.8,1.5,11.9,2.7c-2.7,1.3-3.3,1.8-3.8,1.8c-24.7-2.1-50-1.6-72.8-13.3c-9.3-4.8-17.2-12.3-26-18.2
			c-6.5-4.4-13.1-8.8-20-12.4c-5.7-2.9-7.2-6-4.4-12c2.4-5.2,3.9-10.8,4.9-16.4c1.6-8.5,3-17.1,3.5-25.6c0.3-4.4-1-9.2-2.6-13.4
			c-2.1-5.4-1.8-9.2,4.3-10.4c7.9-1.5,12.8-6.5,18-12.2c12.2-13.3,29.3-19,45-26.7c6.6-3.2,12.6-7.6,18.7-11.6
			c3.8-2.5,7.4-5.4,11.8-8.6c2.1,18.7-6.4,32.8-26.4,37.4c-7.5,1.7-7.9,2.3-7,10.1c7.5-3.7,15.1-7.1,22.4-11.3
			c3.2-1.8,5.4-5.4,8.3-7.8c1.5-1.2,3.7-1.9,5.7-2.1c13.1-1.8,21,6.3,27.8,15.5c4.5,6.1,7.6,13.3,11.4,20c1.4,2.5,2.6,5.4,4.7,7.2
			c13.5,11.8,14.2,27.1,12.4,43.1c-0.6,5.3-1.7,10.5-2.1,15.8c-1.1,14.6-9.3,23.8-22,29.6c-3.1,1.4-6.2,2.8-9.4,3.9
			c-11.4,3.9-22.8,0.3-29.7-9.4c-4.8-6.7-10.8-11.1-19.3-12.6C750.7,366.2,743.2,362.4,738.1,354.3z M794.6,327.6
			c-7.7-2-16.6-3-25.5-0.4c-1.2,0.4-2.8,3.6-2.4,5c1.9,6.3,10.7,8,15.5,3.8C785.8,333,790,330.7,794.6,327.6z M740.6,303.8
			c3.7,3.5,6.2,5.9,8.7,8.2c1.3-1.4,3.9-3.3,3.6-4.3C751.6,303.2,748,302,740.6,303.8z M812.5,300.8c-1.4,0.6-2.9,1.3-4.3,1.9
			c1.2,3.1,2.2,6.4,3.7,9.3c0.1,0.3,3.5-1.1,5.3-1.7C815.7,307.1,814.1,303.9,812.5,300.8z"/>
		<path id="XMLID_63_" class="st0" d="M242.3,353.4c-13.9,1.6-28.5-0.5-40.9-10.5c-3.2-2.6-6.4-6.1-7.6-9.9
			c-3.2-9.3-5.4-19-7.8-28.6c-1.7-6.9-3.7-13.8-4.2-20.9c-0.6-7.7,2-14.8,6.9-21.3c2.7-3.6,3-8.9,4.9-13.3c2.6-6,5.3-12,8.5-17.7
			c10.4-19,28.7-16.3,45.8-16c38,0.7,69.2,34.3,73.2,66.7c2,16.9-0.4,32.3-12.4,46.6C293.1,346.8,269.7,355.6,242.3,353.4z"/>
		<path id="XMLID_59_" class="st0" d="M233.3,380.6c2.1,0,4.1,0,5.6,0c0-3.4,0-6.4,0-9.5c-2.4,0.8-5.4,1.7-8.4,2.7
			c0,1.9,0.8,4.9-0.3,6.8c-0.8,1.4-4,2-6.1,2.1c-12.5,0.7-25.1,0.4-37.5,2c-5.2,0.6-10.7,4-14.9,7.6c-6.6,5.7-13.9,9.6-22.2,9.2
			c-13.6-0.7-27.3-2.3-40.7-4.7c-8.4-1.5-13-8.9-12.9-17c0-10.8,5.2-19.5,14.6-21.8c7.8-1.9,16.2-3.1,24.2-2.6
			c14.3,1,27.7,5.4,40.4,12.5c4.2,2.4,10.1,2.8,15.2,2.6c11.4-0.5,22.8-1.9,34.2-2.9c0.1-0.8,0.2-1.7,0.3-2.5
			c-2.3-0.9-4.5-2.1-6.8-2.6c-27-5.3-54-10.4-81-15.8c-9.2-1.8-18.4-3.9-27.4-6.6c-14.2-4.3-17.6-15.5-7.5-26.5
			c13-14.1,29.4-18.7,48-13.9c5.8,1.5,11.3,4.2,16.8,6.4c6.2,2.5,8.4,7.3,9.9,13.8c3,13.3,9.5,24.6,22.5,31.1
			c11.4,5.7,23,10.2,36.9,8.6c-0.8,1.6-1.2,2.6-1.7,3.6c3.2,1,6.3,1.9,9.4,2.8c1.1-9.6,8.2-3.4,13.5-4.8c-0.7,7.3-1,14.1,7.8,18.9
			c-0.4-3.2-0.6-4.5-0.8-5.8c-1.8-9.2,1.8-14.7,10.9-15.6c15.4-1.6,30.7-3.3,46.1-4.2c8.5-0.5,16.1-2.2,22.5-8
			c1.2-1.1,4.3-2.2,4.7-1.7c1.3,1.5,2.6,3.9,2.3,5.6c-1.1,6.1-3.6,11.2-9.9,14.1c-33.8,15.6-69.3,21.8-106.4,18.4
			c-0.4,0-0.7-0.4-1.1-0.7C233.4,381.7,233.4,381.2,233.3,380.6z M136.6,308.6c-7.1,2.1-12.5,2.8-17.1,5.2c-2.9,1.5-6.5,5.8-6.2,8.3
			c0.5,3.2,4.2,7.4,7.3,8.4c12.9,3.7,26.2,6.5,39.4,9.3c6.4,1.3,12.1,0.1,14.8-7c2.6-6.8-1.7-11.6-6.4-13.6
			C157.7,314.6,146.4,311.7,136.6,308.6z M136.1,392.6c5.3-0.4,10.9-0.8,16.4-1.4c1.6-0.2,3.2-1,4.7-1.7c7.7-3.9,9.3-12.8,2.3-16.6
			c-12.6-6.8-26.3-9.8-40.4-5.4c-5.3,1.6-10.7,6.6-8.7,12.3c1.5,4.6,6.7,8.9,11.3,11.3C125.5,393.1,131,392.2,136.1,392.6z"/>
		<path id="XMLID_55_" class="st0" d="M469.8,283.4c-15.6-4.6-31.2-9.3-46.9-13.7c-16-4.5-32.2-8.4-48.1-13.3
			c-6.2-1.9-12.9-5.3-12.8-13.1c0.2-9.9,6.2-17.1,14.4-22.2c24.4-15.3,53.6-1.3,63.2,20.6c1,2.2,2.4,4.3,3,6.6
			c2.4,9.7,9.4,13.8,18.3,16.4c29.9,8.7,59.6,17.6,89.4,26.5c5.1,1.5,10.4,2.6,15.1,4.9c2.4,1.1,5.6,4.4,5.4,6.6
			c-0.3,4-3.9,5.2-8.1,4.7c-22.8-2.7-45.6-5.2-68.4-7.8c-5.3-0.6-10.5-1.7-15.8-2c-2.2-0.1-4.5,1.5-6.8,2.3
			c-1.9,0.7-3.8,1.8-5.7,1.8c-6.8,0.1-13.5-0.2-20.3-0.4c-11.3-0.2-21.1,2.8-29.7,10.8c-8.9,8.3-20.4,6-31.2,5.1
			c-4-0.4-8.1-1.6-12-2.8c-12.5-3.8-17.1-9.6-16.3-20.5c0.9-12.4,8.7-20.9,20.5-22.7c14.6-2.2,28.4,0.8,39.9,9.3
			c17,12.6,34.6,7.1,52.3,5.8C469.6,285.4,469.7,284.4,469.8,283.4z M396.7,225.4c-4.7,1.3-8.6,1.6-11.5,3.5
			c-3.7,2.4-6.5,6.2-9.7,9.4c3.3,3.1,6.1,7.4,10,9.1c8.8,3.8,18.2,6.3,27.3,9.1c8.4,2.6,13.9,0.7,16.6-5.4c2.6-6,0.2-13.5-7.1-16.8
			C413.8,230.5,404.7,228.2,396.7,225.4z M394.6,309c3.3-0.3,6-0.4,8.6-0.9c5.8-1.4,10.4-4.5,11-10.8c0.6-6.3-3.8-10.3-9.1-11.4
			c-8.8-1.8-17.8-2.9-26.8-2.9c-7.2,0-9.3,6.5-9.7,12.3c-0.4,6.1,2.8,10.7,9.4,11.7C383.7,307.9,389.5,308.4,394.6,309z"/>
		<path id="XMLID_54_" d="M561.5,266.2c-12.2-4.1-23.8-8.1-35.5-12c8.9-3.2,17.9-4.6,27.1-1C559,255.6,560.4,260.7,561.5,266.2z"/>
		<path id="XMLID_53_" d="M589.9,245.9c3.4-0.8,6.5-1.5,9.5-2.2c0.2,0.5,0.4,1,0.5,1.5c-2.6,1.3-5.1,2.7-7.6,4
			c0.5,2.6,0.9,4.8,1.3,7.1c-0.4,0.3-0.9,0.6-1.3,0.9c-1.2-1.7-2.4-3.3-3.7-5.1c-2.3,0.7-4.4,1.3-6.5,1.9c3-3.7,6.8-6.6,3.4-12.2
			C587.2,243.2,588.8,244.7,589.9,245.9z"/>
		<path id="XMLID_52_" d="M529.6,222.4c-3.7,1.2-5.9,1.8-8.4,2.6c0.2,2.5,0.4,5,0.6,7.5c-0.4,0.2-0.8,0.3-1.2,0.5
			c-1.2-1.8-2.4-3.6-3.8-5.7c-2.3,0.2-4.8,0.3-9.5,0.7c4.1-2.1,6.2-3.2,8.6-4.4c-0.2-1.9-0.5-3.6-0.6-4.7
			C519.5,220,523.6,221,529.6,222.4z"/>
		<path id="XMLID_51_" d="M794.6,327.6c-4.6,3.1-8.8,5.4-12.4,8.4c-4.9,4.2-13.6,2.5-15.5-3.8c-0.4-1.4,1.1-4.6,2.4-5
			C778,324.6,786.9,325.7,794.6,327.6z"/>
		<path id="XMLID_50_" d="M740.6,303.8c7.3-1.9,10.9-0.6,12.3,4c0.3,1-2.3,2.8-3.6,4.3C746.9,309.7,744.3,307.3,740.6,303.8z"/>
		<path id="XMLID_49_" d="M812.5,300.8c1.6,3.2,3.1,6.3,4.7,9.5c-1.8,0.6-5.2,2-5.3,1.7c-1.5-3-2.5-6.2-3.7-9.3
			C809.7,302,811.1,301.4,812.5,300.8z"/>
		<path id="XMLID_48_" d="M136.6,308.6c9.8,3.1,21.1,6,31.8,10.5c4.8,2,9,6.8,6.4,13.6c-2.7,7.1-8.4,8.3-14.8,7
			c-13.2-2.8-26.4-5.5-39.4-9.3c-3.1-0.9-6.9-5.2-7.3-8.4c-0.4-2.5,3.3-6.8,6.2-8.3C124.1,311.4,129.5,310.6,136.6,308.6z"/>
		<path id="XMLID_47_" d="M136.1,392.6c-5.1-0.4-10.5,0.5-14.5-1.5c-4.6-2.4-9.7-6.7-11.3-11.3c-1.9-5.7,3.4-10.7,8.7-12.3
			c14.1-4.4,27.8-1.4,40.4,5.4c7,3.8,5.5,12.7-2.3,16.6c-1.5,0.8-3.1,1.6-4.7,1.7C146.9,391.8,141.4,392.2,136.1,392.6z"/>
		<path id="XMLID_46_" d="M396.7,225.4c8.1,2.7,17.2,5.1,25.6,8.9c7.2,3.3,9.7,10.8,7.1,16.8c-2.7,6.1-8.2,8-16.6,5.4
			c-9.2-2.9-18.5-5.4-27.3-9.1c-3.9-1.7-6.7-6-10-9.1c3.2-3.2,6-6.9,9.7-9.4C388,227,391.9,226.8,396.7,225.4z"/>
		<path id="XMLID_45_" d="M394.6,309c-5.1-0.6-10.8-1.1-16.5-2c-6.5-1-9.8-5.6-9.4-11.7c0.4-5.9,2.5-12.3,9.7-12.3
			c8.9,0,18,1.1,26.8,2.9c5.2,1.1,9.7,5.1,9.1,11.4c-0.6,6.3-5.2,9.5-11,10.8C400.6,308.7,397.9,308.7,394.6,309z"/>
	</g>
</g>
</svg>
